# xmcd
#
# Track frame offsets: 
#        150
#        12927
#        27005
#        44687
#        56102
#        67862
#        84312
#        99975
#        113152
#        128535
#        140872
#        153100
#        166152
#        184912
#        201110
#        219100
#
# Disc length: 3186 seconds
#
# Revision: 2
# Processed by: cddbd v1.5.2PL0 Copyright (c) Steve Scherf et al.
# Submitted via: ExactAudioCopyFreeDBPlugin 1.0
#
DISCID=cd0c7010
DTITLE=Various Artist - The Best Of Country Hits
DYEAR=1998
DGENRE=Country
TTITLE0=Don Williams - Some Broken Hearts Never Mend
TTITLE1=Mark Chesnutt - Broken Promise Land
TTITLE2=Nanci Griffith - Lone Star State Of Mind
TTITLE3=Patty Loveless - Timber I'm Falling In Love
TTITLE4=Bonnie Guitar - Country Lady
TTITLE5=The Nitty Gritty Dirt Band - You Ain't Going Nowhere
TTITLE6=Steve Wariner - I Should Be With You
TTITLE7=Billy Crash Craddock - I Need Somebody To Love Me
TTITLE8=Tracy Byrd - Someone To Give My Love To
TTITLE9=Patsy Cline - Crazy
TTITLE10=Waylon Jennings - Workin Without A Net
TTITLE11=George Strait - Amarillo By Morning
TTITLE12=Steve Earle - The Rain Came Down
TTITLE13=Joe Ely - She Never Spoke Spanish To Me
TTITLE14=McBride and The Ride - Going Out Of My Mind
TTITLE15=Lionel Cartwright - Be My Angel
EXTD=
EXTT0=
EXTT1=
EXTT2=
EXTT3=
EXTT4=
EXTT5=
EXTT6=
EXTT7=
EXTT8=
EXTT9=
EXTT10=
EXTT11=
EXTT12=
EXTT13=
EXTT14=
EXTT15=
PLAYORDER=
